<svg width="330" height="330" xmlns="http://www.w3.org/2000/svg" xmlns:xlink="http://www.w3.org/1999/xlink" xml:space="preserve" overflow="hidden"><g transform="translate(-2035 -1073)"><path d="M2316.88 1293 2083.12 1293 2083.12 1141.75 2316.88 1141.75 2316.88 1293ZM2323.75 1121.12 2076.25 1121.12C2068.69 1121.12 2062.5 1127.31 2062.5 1134.87L2062.5 1299.87C2062.5 1307.44 2068.69 1313.62 2076.25 1313.62L2172.5 1313.62 2172.5 1334.25 2138.12 1334.25 2138.12 1354.87 2261.88 1354.87 2261.88 1334.25 2227.5 1334.25 2227.5 1313.62 2323.75 1313.62C2331.31 1313.62 2337.5 1307.44 2337.5 1299.87L2337.5 1134.87C2337.5 1127.31 2331.31 1121.12 2323.75 1121.12Z" fill="#953816"/><g><g><g><path d="M2199.98 1155.25C2165.89 1155.25 2138.26 1182.88 2138.26 1216.97 2138.26 1251.05 2165.89 1278.68 2199.97 1278.68 2234.06 1278.69 2261.69 1251.05 2261.69 1216.97 2261.69 1216.97 2261.69 1216.96 2261.69 1216.96 2261.7 1182.89 2234.09 1155.26 2200.02 1155.25 2200.01 1155.25 2199.99 1155.25 2199.98 1155.25ZM2227.55 1236.77 2219.78 1244.54 2199.98 1224.73 2180.18 1244.54 2172.41 1236.77 2192.2 1216.96 2172.4 1197.16 2180.18 1189.39 2199.98 1209.2 2219.78 1189.39 2227.55 1197.16 2207.74 1216.96Z" fill="#953816"/></g></g></g></g></svg>