<svg width="96" height="96" xmlns="http://www.w3.org/2000/svg" xmlns:xlink="http://www.w3.org/1999/xlink" xml:space="preserve" overflow="hidden"><g transform="translate(-533 -139)"><path d="M606.5 161 602.6 164.9C615 177.3 615 197.5 602.6 209.9L606.5 213.8C621.1 199.3 621.1 175.6 606.5 161Z" fill="#953816"/><path d="M598.6 168.8 594.7 172.7C602.8 180.8 602.8 193.9 594.7 202.1L598.6 206C608.9 195.7 608.9 179.1 598.6 168.8Z" fill="#953816"/><path d="M590.9 176.8 587 180.7C590.8 184.5 590.8 190.6 587 194.4L590.9 198.3C596.9 192.3 596.9 182.7 590.9 176.8Z" fill="#953816"/><path d="M536.5 173.6 536.5 200.4 555.9 200.4 581 221 581 153 555.9 173.6Z" fill="#953816"/></g></svg>